<svg width="24" height="24" viewBox="0 0 24 24" fill="none" xmlns="http://www.w3.org/2000/svg">
<path fill-rule="evenodd" clip-rule="evenodd" d="M7.71967 19.2803C8.01256 19.5732 8.48744 19.5732 8.78033 19.2803L12 16.0607L15.2197 19.2803C15.5126 19.5732 15.9874 19.5732 16.2803 19.2803C16.5732 18.9874 16.5732 18.5126 16.2803 18.2197L12.5303 14.4697C12.2374 14.1768 11.7626 14.1768 11.4697 14.4697L7.71967 18.2197C7.42678 18.5126 7.42678 18.9874 7.71967 19.2803Z" fill="#564D54"></path>
<path d="M11.4697 9.53033C11.7626 9.82322 12.2374 9.82322 12.5303 9.53033L16.2803 5.78033C16.5732 5.48744 16.5732 5.01256 16.2803 4.71967C15.9874 4.42678 15.5126 4.42678 15.2197 4.71967L12 7.93934L8.78033 4.71967C8.48744 4.42678 8.01256 4.42678 7.71967 4.71967C7.42678 5.01256 7.42678 5.48744 7.71967 5.78033L11.4697 9.53033Z" fill="#564D54"></path>
</svg>