<?xml version="1.0" encoding="UTF-8"?>
<svg width="996px" height="996px" viewBox="0 0 996 996" version="1.1" xmlns="http://www.w3.org/2000/svg" xmlns:xlink="http://www.w3.org/1999/xlink">
    <!-- Generator: Sketch 57.1 (83088) - https://sketch.com -->
    <title>Artboard</title>
    <desc>Created with Sketch.</desc>
    <g id="Artboard" stroke="none" stroke-width="1" fill="none" fill-rule="evenodd">
        <circle id="Oval" fill="#6AB8B3" cx="498" cy="498" r="498"></circle>
        <g id="cheers-(1)" transform="translate(168.500000, 158.000000)" fill-rule="nonzero">
            <path d="M340.361612,640.56755 L350.605817,582.234314 C350.605817,582.234314 257.576571,311.789188 256.966105,308.170184 C255.756801,301.222161 255.576567,294.129145 256.431221,287.128925 L143.768216,271 L140.599605,289.077619 L95.3553328,281.178448 C80.9367008,278.655585 66.1052784,281.949806 54.1285116,290.336152 C42.1459296,298.728295 34.0063793,311.528201 31.4947466,325.911421 L1.32608513,497.640104 C-3.89485425,527.57228 16.1749512,556.066134 46.1750081,561.30325 L91.4250943,569.214021 L86.663457,596.321749 C80.1227473,595.040019 73.4018028,597.383092 69.0878419,602.452018 C64.7738809,607.515143 63.541319,614.515363 65.8727199,620.744225 C68.2041193,626.973088 73.7273848,631.456244 80.3146077,632.465388 L333.931367,676.722788 C343.943014,678.468494 353.472103,671.787257 355.222106,661.805997 C356.972109,651.81894 350.274421,642.313255 340.268589,640.56755 L340.361612,640.56755 Z M97.803013,533.058783 L61.5703861,526.742925 C46.5645426,524.127266 36.523827,509.865841 39.151739,494.896852 L66.0878362,341.268988 C68.7041195,326.3 83.0006586,316.283943 98.0065006,318.905401 L134.239127,325.221258 L97.803013,533.058783 Z" id="Shape" fill="#E2E2E2"></path>
            <path d="M280.375338,304.104293 C274.25193,306.222797 268.244935,308.538643 262.127348,310.274074 C259.397424,311.046024 257.52315,311.736714 256.917794,308.114942 C255.631411,300.906221 255.46261,293.546594 256.41721,286.285636 C256.41721,285.908368 256.620936,285.548514 256.679144,285.182854 L155.479917,273 L100.648632,592.563379 C99.6183629,599.046583 104.053759,605.135107 110.555517,606.162437 L317.17982,638.851255 C323.62919,639.87278 329.706033,635.525493 330.80033,629.106134 L342.5,558.580241 L282.13902,311.585807 C281.359043,309.142271 280.771148,306.640694 280.375338,304.104293 Z" id="Path" fill="#F4C734"></path>
            <path d="M258.5,312.142142 L365.150443,625.308108 C355.691863,628.694974 350.694986,639.029851 353.929286,648.533988 C357.169403,658.038125 367.442375,663.191041 377.005664,660.106262 L620.921872,577.241341 C630.380452,573.860285 635.377329,563.519598 632.137213,554.015461 C628.902913,544.511324 618.62994,539.364217 609.066651,542.443187 L598.345763,511.08999 L634.999219,498.63469 C663.892682,488.851705 679.360311,457.521745 669.552706,428.6782 L613.260771,263.395678 C603.435713,234.569561 572.075806,219.145671 543.211428,228.951896 L506.552157,241.46529 L502.404573,229.329505 L258.5,312.142142 Z M614.511443,466.810936 L586.560348,476.326691 L518.407376,276.21116 L546.352654,266.689594 C560.784843,261.786482 576.461888,269.495522 581.365692,283.908581 L631.747468,431.826882 C636.662905,446.23994 628.943633,461.896206 614.511443,466.793508 L614.511443,466.810936 Z" id="Shape" fill="#E2E2E2"></path>
            <path d="M491.250465,233 L267.5,308.815317 L371.975083,608.019188 C374.116848,614.169039 380.833146,617.449733 387.031461,615.38046 L585.365923,549.16378 C591.610798,547.07712 594.968946,540.353438 592.879562,534.134032 L491.250465,233 Z" id="Path" fill="#F4C734"></path>
            <path d="M255.950606,286.474413 C259.425529,258.369572 283.831208,237.657679 312.030877,238.885956 C313.104102,237.238551 314.264343,235.643537 315.5,234.118378 C314.043897,233.641038 312.56459,233.245195 311.067877,232.925029 C297.7251,231.26016 284.196684,232.069309 271.143967,235.305907 C252.568501,213.878003 223.365224,205.082142 196.099547,212.702116 C168.828071,220.32209 148.361411,242.995735 143.5,270.978331 L255.596731,293 C255.677949,290.863613 255.654744,288.645727 255.950606,286.474413 Z" id="Path" fill="#F9F2CC"></path>
            <path d="M481.5,24 C481.5,37.253907 470.753907,48 457.5,48 C444.240234,48 433.5,37.253907 433.5,24 C433.5,10.746093 444.240234,0 457.5,0 C470.753907,0 481.5,10.746093 481.5,24 Z" id="Path" fill="#F9F2CC"></path>
            <path d="M397.5,106.5 C397.5,132.731689 376.231689,154 350,154 C323.762513,154 302.5,132.731689 302.5,106.5 C302.5,80.2683105 323.762513,59 350,59 C376.231689,59 397.5,80.2683105 397.5,106.5 Z" id="Path" fill="#F9F2CC"></path>
            <path d="M219.5,118.5 C219.5,138.104736 203.604736,154 184,154 C164.389486,154 148.5,138.104736 148.5,118.5 C148.5,98.895264 164.389486,83 184,83 C203.604736,83 219.5,98.895264 219.5,118.5 Z" id="Path" fill="#F9F2CC"></path>
            <path d="M136.5,24 C136.5,37.253907 125.753907,48 112.5,48 C99.240234,48 88.5,37.253907 88.5,24 C88.5,10.746093 99.240234,0 112.5,0 C125.753907,0 136.5,10.746093 136.5,24 Z" id="Path" fill="#F9F2CC"></path>
            <g id="Group" transform="translate(142.500000, 324.000000)" fill="#E0B730">
                <path d="M270.968073,29.0083475 C269.910848,25.9349619 267.633749,23.4251269 264.671198,22.083062 C261.877105,24.633566 258.589253,26.5798505 255.010955,27.8057178 C252.937169,28.4796565 250.793674,28.9153906 248.621137,29.0896855 C247.720753,31.5298029 247.656856,34.196503 248.44687,36.6714784 L317.729921,240.351562 C319.850178,246.562243 326.60015,249.88545 332.815699,247.776491 C339.03125,245.655913 342.348147,238.904921 340.239506,232.688432 L270.968073,29.0083475 Z" id="Path"></path>
                <path d="M194.98733,42.3011775 C201.20288,40.1864091 207.95866,43.5096165 210.078917,49.7319162 L279.356161,253.40619 C281.476418,259.62849 278.147905,266.385291 271.932354,268.50006 C265.716804,270.614828 258.961024,267.285811 256.840767,261.063512 L187.563523,57.3950472 C185.443266,51.1727475 188.771779,44.4159459 194.98733,42.3011775 L194.98733,42.3011775 Z" id="Path"></path>
                <path d="M316.76564,0.854041457 C322.981189,-1.26072694 329.73697,2.06248054 331.851418,8.28477876 L401.12866,211.959054 C403.243111,218.181352 399.920404,224.938154 393.699046,227.052922 C387.483495,229.173502 380.727715,225.844483 378.613268,219.622184 L309.336024,15.9479097 C307.221575,9.72560998 310.550089,2.96880986 316.76564,0.854041457 L316.76564,0.854041457 Z" id="Path"></path>
                <path d="M63.990256,267.715736 L101.051199,55.7973509 C102.18394,49.3252293 108.353018,44.9911168 114.824161,46.1240288 L114.835779,46.1298382 C121.306922,47.2627502 125.634571,53.4269511 124.50183,59.8990728 L87.440887,271.817456 C86.3081477,278.289578 80.1448768,282.617881 73.6679263,281.484969 L73.6563077,281.484969 C67.1851642,280.352059 62.8575152,274.187856 63.990256,267.715736 Z" id="Path"></path>
                <path d="M127.214599,278.882177 L146.418905,162.401431 C147.487747,155.917691 153.604547,151.525479 160.081497,152.594483 C166.564259,153.663487 170.949997,159.787021 169.881154,166.270761 L150.682657,282.751507 C149.613815,289.235247 143.491207,293.627459 137.014256,292.558455 C130.537304,291.489451 126.145756,285.365919 127.214599,278.882177 Z" id="Path"></path>
                <path d="M0.632307631,256.619011 L37.6816338,44.7122462 C38.8143746,38.2401261 44.9776439,33.9060121 51.448786,35.0389241 L51.4604045,35.0389241 C57.9373551,36.1718346 62.2650056,42.336037 61.1322648,48.8139666 L24.0829401,260.720733 C22.9501993,267.192854 16.7869299,271.521158 10.3157864,270.394055 L10.3041678,270.388246 C3.82721728,269.255334 -0.500431683,263.091133 0.632307631,256.619011 Z" id="Path"></path>
            </g>
            <path d="M331.560068,661 C331.223201,661 330.886333,660.970835 330.561081,660.918336 L87.4641262,619.859313 C85.901753,619.596825 84.5136244,618.721863 83.6017571,617.426919 C82.6840806,616.131977 82.3181715,614.527881 82.5853437,612.964616 C83.1951911,609.750592 86.2153898,607.592353 89.4388715,608.064832 L332.547442,649.135524 C335.590873,649.654667 337.73986,652.431211 337.478497,655.522741 C337.222941,658.620105 334.649965,661 331.560068,661 L331.560068,661 Z" id="Path" fill="#CCCCCC"></path>
            <path d="M372.480032,643 C369.560024,643.01728 367.05799,640.913506 366.581965,638.038928 C366.100135,635.164349 367.783639,632.365114 370.552711,631.437831 L604.623524,551.320557 C607.729297,550.259977 611.11372,551.917495 612.176067,555.018098 C613.244221,558.124497 611.583939,561.49749 608.472361,562.563865 L374.413158,642.681139 C373.792003,642.889779 373.136017,643 372.480032,643 L372.480032,643 Z" id="Path" fill="#CCCCCC"></path>
            <path d="M256.103308,286.276459 C255.156481,293.535949 255.324934,300.899891 256.60286,308.112958 C257.212781,311.675969 259.077391,311.031842 261.801697,310.260048 C268.394635,308.385697 274.888823,305.81499 281.475953,303.569248 C287.697131,301.456975 294.458521,304.776262 296.572909,310.985418 L304.072012,333.007609 C308.457623,346.865054 322.538046,355.232906 336.821777,352.476504 C344.425438,350.73562 350.942863,345.861142 354.747596,339.048481 C358.546523,332.241621 359.284234,324.140703 356.769043,316.759351 L362.182804,332.65363 C366.568415,346.499467 380.64303,354.86732 394.920951,352.116722 C402.530421,350.38164 409.042036,345.50136 412.846771,338.694501 C416.651507,331.88764 417.395028,323.786723 414.885645,316.405372 L400.95044,275.51199 C398.841861,269.29703 402.170278,262.554003 408.385647,260.441729 L501.5,228.792445 C492.386063,201.982819 468.645678,182.804072 440.496449,179.502193 C412.347218,176.200315 384.807907,189.373009 369.722569,213.344993 C347.114892,208.975373 324.170306,219.147942 312.256548,238.83735 C284.107319,237.856651 259.809293,258.387486 256.103308,286.276459 L256.103308,286.276459 Z" id="Path" fill="#F9F2CC"></path>
        </g>
    </g>
</svg>